<svg viewBox="0 0 24 24" xml:space="preserve" xmlns="http://www.w3.org/2000/svg" enable-background="new 0 0 24 24"><path d="M5 20h12.4c1.4 0 2.6-.9 2.9-2.3l1-4c.2-.9 0-1.8-.5-2.6-.6-.7-1.4-1.2-2.4-1.2h-2.8l.7-1.5c.5-.7.7-1.7.7-2.6 0-.9-.5-1.7-1.3-2l-.4-.2c-.9-.5-2.1-.2-2.8.6l-5.1 6c-.1-.2-.2-.2-.4-.2H5c-1.7 0-3 1.3-3 3v4c0 1.7 1.3 3 3 3zm3-7.5 6.1-7.1c.1-.1.2-.1.3-.1l.4.2c.1 0 .2.1.2.3 0 .6-.2 1.3-.4 1.8l-1.5 2.9c-.2.3-.1.7 0 1 .2.3.5.5.9.5h4.4c.3 0 .6.1.8.4.2.2.3.6.2.9l-1 4c-.1.4-.5.8-1 .8H8v-5.6zM4 13c0-.6.4-1 1-1h1v6H5c-.6 0-1-.4-1-1v-4z" id="_icons" fill="#ffffff" class="fill-000000"></path></svg>