<svg data-name="015_HEALTH" viewBox="0 0 24 24" xmlns="http://www.w3.org/2000/svg"><path d="M12 21.373c-1.385-.001-3.546-1.682-4.175-2.197a1 1 0 1 1 1.267-1.548 7.928 7.928 0 0 0 2.912 1.745c1.239-.059 8.285-5.157 8.285-10.93a6.512 6.512 0 0 0-.25-1.795A3.68 3.68 0 0 0 16.506 4a3.881 3.881 0 0 0-3.577 2.745 1 1 0 0 1-1.857 0A3.882 3.882 0 0 0 7.495 4 3.682 3.682 0 0 0 3.96 6.648a6.538 6.538 0 0 0-.25 1.795A10.927 10.927 0 0 0 6.42 14.94a1 1 0 0 1-1.556 1.255 12.864 12.864 0 0 1-3.151-7.75 8.528 8.528 0 0 1 .327-2.345A5.69 5.69 0 0 1 7.495 2 5.542 5.542 0 0 1 12 4.327 5.543 5.543 0 0 1 16.506 2a5.69 5.69 0 0 1 5.455 4.098 8.506 8.506 0 0 1 .328 2.345c0 6.818-7.915 12.93-10.289 12.93Z" fill="#ffffff" class="fill-333333"></path><path d="M11.67 15.643a1 1 0 0 1-.706-.293l-2.171-2.17a1 1 0 0 1 1.414-1.415l1.369 1.368 3.133-4.045a1 1 0 1 1 1.581 1.225l-3.829 4.942a1 1 0 0 1-.727.386.9.9 0 0 1-.063.002Z" fill="#ffffff" class="fill-333333"></path></svg>