<svg id="Layer_1" data-name="Layer 1" xmlns="http://www.w3.org/2000/svg" viewBox="0 0 692.43 809.2"><defs><style>.cls-1{fill:#d02b21;}.cls-2{fill:#f4eaea;}.cls-3,.cls-5{fill:#fff;}.cls-4{fill:#de241e;}.cls-5{stroke:#000;stroke-miterlimit:10;stroke-width:6px;}</style></defs><path class="cls-1" d="M340.91,166.84s-109.12-8.68-180.27,76.43-49.7,182.12-49.7,182.12,16.68,78.3,29.62,100.77-68.43-80-78-144.34c0,0-44.94-167.49,98.38-274,0,0,137.19-127.32,324.77-10.9,0,0,107.23,46.3,122.55,200.85,0,0,12.09,114.22-64.51,216.85,0,0,69.7-203-88.85-315.57C454.94,199,386.75,164,340.91,166.84Z"/><path class="cls-2" d="M138.28,281.29l397,13.49-108.9,203V522.5s50.3,23.23,85.54,9.19c0,0-5.37,48.26-68.94,83.24,0,0-41.87,18.63-82.47,3.57l-30.64,52.85-32.42-64.6s-9.53-.08-13.7-2.55c0,0-22.69,17.36-41.58,15.45,0,0-19.79,2-22.21-23.49,0,0-17,4.72-29.24-9.58,0,0-11.74-10.46-3.57-42.63,0,0,4.85-14.81,4.85-18.13s10,20.68,10,20.68-13.79,29.62,6.13,33.19c0,0,18.12,4.6,21.19,1,0,0,4.85,24.77,16.08,22,0,0,15.32-1.28,22.47-9.45,0,0,26.3,3.58,39.58-1.78,0,0,8.42-.77,22.72,2,0,0,15.57-5.36,20.17-11.24l-14.55-5.61-4.34-2.56s-25.54,24-68.43,12.26c0,0-60.77-13.79-68.68-79.15,0,0-7.15-22.21,10.47-85.28Z"/><path d="M204.47,524.54s-24.08,42.37-13.19,52.21,31.06,10.6,31.06,10.6,7.81,49.28,46.67,8.94c0,0,88.72,12.51,89.83-16.22S204.47,524.54,204.47,524.54Z"/><path d="M315.79,346.07s-36.94.59-64.14,31.7a92.29,92.29,0,0,0-13.92,21.51c-5.37,11.36-16.35,35.62-19.24,50-.15.72-.3,1.44-.5,2.15-2.47,9-20.35,80.58,25.78,106,.85.47,1.71.93,2.55,1.43,8.12,4.79,64.22,34.84,99.19-26,1-1.81,2.12-3.62,3.27-5.37,4.11-6.26,16.69-29.29,22.42-83.34L375,388.71s-8.23-16.7-34.11-33.88c0,0,26.94,55.44,26.32,68.37a23.82,23.82,0,0,0,0,2.39,170.69,170.69,0,0,1-5.45,50.73S351.54,398.93,328.3,368L318.19,554.8a3.56,3.56,0,0,1-1.77,2.9c-3.06,1.76-9.61,5.37-13.77,6.41a1.07,1.07,0,0,1-1.34-1.1l9.63-194.21s-43.63,41.09-43.66,84.85c0,.26,0,.51,0,.77-.22,2.43-1.28,16.92,3.9,26.29a8.46,8.46,0,0,1,1.12,4.5l0,1.18a7.51,7.51,0,0,1-1,3.42c-3.95,6.71-19.08,34.74-17.53,67a.72.72,0,0,1-1,.69l-8.7-4.15a3.08,3.08,0,0,1-1.74-2.38c-.5-3.82-1-14.18,3.88-32.26,0,0,.23-17.71-7.24-33.83a4.76,4.76,0,0,1,0-4c3.38-7.49,14.93-33.56,17.5-45.81a59.11,59.11,0,0,1,2.2-7.94c4.18-11.56,15.35-40.2,27.88-53.46.81-.86,1.55-1.76,2.28-2.69C292.36,366.33,303.48,353,315.79,346.07Z"/><path d="M394.43,419.1s12.51,15.83,12.25,59.74c0,0,1.62,39.83-3.06,45.28l-24.42,5.2,1.08-45,7.54-45.91L391.53,415S393.66,418,394.43,419.1Z"/><circle class="cls-3" cx="275.55" cy="370.74" r="6.54"/><circle class="cls-3" cx="259.06" cy="388.97" r="7.4"/><circle class="cls-3" cx="244.25" cy="419.1" r="8.68"/><circle class="cls-3" cx="235.57" cy="449.86" r="10.09"/><circle class="cls-3" cx="336.76" cy="417.69" r="6.26"/><circle class="cls-3" cx="363.7" cy="384.12" r="4.85"/><circle class="cls-3" cx="340.14" cy="450.94" r="7.34"/><circle class="cls-3" cx="339.57" cy="484.33" r="9.06"/><polygon class="cls-3" points="277.49 517.9 265.49 540.63 277.49 563.35 290.77 542.67 277.49 517.9"/><polygon class="cls-3" points="232.05 497.48 225.48 510.75 234.09 529.32 240.98 513.4 232.05 497.48"/><polygon points="366.86 553.65 353.83 563.35 365.83 567.69 380.64 561.82 366.86 553.65"/><polygon points="394.17 543.44 382.17 547.01 394.17 554.67 406.68 547.52 394.17 543.44"/><polygon points="422.77 554.67 414.34 558.5 429.41 563.35 440.13 556.46 422.77 554.67"/><polygon points="397.75 570.48 386.51 575.86 396.47 583.01 411.79 576.75 397.75 570.48"/><polygon points="369.15 583.01 353.83 588.12 366.09 596.29 382.17 589.65 369.15 583.01"/><polygon points="414.34 592.97 403.62 598.59 414.34 608.03 429.41 599.1 414.34 592.97"/><polygon points="448.81 572.8 437.07 581.22 452.9 587.35 463.11 576.75 448.81 572.8"/><polygon points="470.77 551.86 461.58 560.67 474.6 566.41 484.56 556.97 470.77 551.86"/><polygon class="cls-4" points="201.15 368.29 213.66 394.84 222.34 374.67 201.15 368.29"/><path class="cls-4" d="M173.07,307.52l15.32,39.83s24,10,34,6.89,1.79-8.17,1.79-8.17S184.05,313.39,173.07,307.52Z"/><polygon class="cls-4" points="260.13 331.18 277.24 343.27 293.32 337.22 269.07 301.14 260.13 331.18"/><path class="cls-4" d="M318.6,307.52,321.15,329l22.22,11s11.23-28.6,11-31.15S320.64,305.73,318.6,307.52Z"/><polygon class="cls-4" points="355.62 346.07 365.83 354.83 442.43 311.1 396.22 311.1 355.62 346.07"/><polygon class="cls-4" points="488.64 332.96 472.81 365.73 399.02 380.03 386.77 382.58 395.96 368.29 488.64 332.96"/><path class="cls-4" d="M401.32,399.44s19.66,38,20.94,60.51l35.23-66.9Z"/><path class="cls-4" d="M332.46,638.41l10-23.08a1.1,1.1,0,0,0-.49-1.4c-3.72-2-18.25-9.53-24.28-7.33a.46.46,0,0,0-.28.54c.4,1.74,2.19,9,5.38,14.15.42.69.86,1.37,1.25,2.08Z"/><path class="cls-5" d="M257.55,204.33C255,207.51,242.72,224,243,245.65L224.3,331.18s-17.51,94.11-22.56,103.56a18.1,18.1,0,0,0-1.47,3.85c-3.8,14.08-17.42,72.67,8,108.38,0,0,38.54,58.76,104.71,37.15A49.81,49.81,0,0,0,328.15,576c13.59-10.63,41.21-38.26,52.49-93.46,0,0,21-126.8,20.68-139.31S425.49,263,435,253.48l11.11-11.1a13.64,13.64,0,0,0,3.69-6.5c.76-3.36.27-7.4-6.2-7.93,0,0-28.77-2.47-35.91,15.83,0,0-5.79,20.79-24.25,21.1a18.3,18.3,0,0,0-7.72,1.67c-5.89,2.85-14.31,10.09-11.69,27.86A11,11,0,0,0,369,303a18.5,18.5,0,0,1,6,6.47c1.87,3.52,3.79,8.31,3.09,12.19-1.22,6.73-.56,64.91-4.23,88.9a71.05,71.05,0,0,0-.71,7.56c-.95,22.49-8.09,126.89-59,146.49-.83.32-1.65.63-2.47,1-6.08,2.67-41.82,16.14-79.36-17.89a52.85,52.85,0,0,1-14.12-20.82c-5.81-15.75-11.06-45.07,3.23-88.26l29.53-99a51.73,51.73,0,0,1,6.81-14.36c5.77-8.46,16.11-21.47,27.82-26.11a10.78,10.78,0,0,0,2.8-1.59c4.21-3.41,12.95-14.53-7-39.5-.39-.5-.8-1-1.23-1.46-1.23-1.35-5.92-7.59-7.29-25.7a42.87,42.87,0,0,0-2.18-10.75c-2.28-6.64-6.46-16.07-11.87-16.39A1.53,1.53,0,0,0,257.55,204.33Z"/><path class="cls-3" d="M74.09,274.67l43.66,21s4.68-.94,8.08-15.23a86.85,86.85,0,0,0-16.42-12.09s-2.56-5.87,6.38-3.66l16.17.85s5.66.94,6.32-6.29c0,0,6.79-7.07,6.45-8.69,0,0,1.27-2.8-12.09-4.25l-31.49-6.13-9.27-30.72s-12.77,16.34-11.15,24.93L84.05,253l-10-3.75-3.83,16.85S68.47,273.22,74.09,274.67Z"/><path class="cls-3" d="M110.09,178.07s-11.58,6.47-11,19.24L137.66,231s17.28,11.74,32.51-5.7c0,0,8.51-9.19,9.37-12.17,0,0,11.48-16-1.45-28.94l-36.43-44s-5-2-14,12.68c0,0,18.72,25.53,23.14,29.53,0,0,10,10.39,11.32,15.32,0,0,3.07,7.58-2.72,11.75,0,0-7.49,9-16.6-2.55,0,0-20.93-21.88-25.7-23.66Z"/><path class="cls-3" d="M254.39,160.58l-20.81-17.74s10.72-26.94-5-40.6c0,0-15.45-15.44-37.66-3.95,0,0-27.19,12.89-33.06,25.4,0,0,11.61,20.17,21.7,37.15,0,0,19.53,31.53,21.32,32.55,0,0,9.06-2.93,19.91-11.74L209.2,160.46s1.53-3.45,5.48-.9c0,0,5,.39,22.73,17.24L258,167.1S260.64,167.1,254.39,160.58Zm-55.54-18.89L188,122.54c17.37-16.21,25.54,0,25.54,0C219.41,133.9,198.85,141.69,198.85,141.69Z"/><path class="cls-3" d="M325,104c1.92-26.3-14.55-36.13-14.55-36.13C278,49,253.88,74.29,253.88,74.29,246.22,83.61,246.22,98,246.22,98c-3.58,29.62,17,49.79,17,49.79,26,24.51,50.68-1.15,50.68-1.15C329.71,128,325,104,325,104Zm-34.34,39.69c-15.7,1-19.91-31.39-19.91-31.39C262.81,80.8,281.2,76.07,281.2,76.07c18-1.91,18.38,30.77,18.38,30.77S306.34,142.71,290.64,143.72Z"/><path class="cls-3" d="M340.91,120.24l-14.65,20.17s50,33.08,69.32,3.33c0,0,17.62-24.9-13.66-43.67,0,0-12.4-5.67-18.43-10.83a6.58,6.58,0,0,1-2.06-7.2c1.06-2.88,4.43-5.55,14.11-3.24a16.35,16.35,0,0,1,3.19,1.13c4.32,2,17.21,8.26,18.38,10.06,0,0,7.15-6.93,8.81-14,0,0-4.85-10.35-30.63-15.37-1.18-.23-2.35-.51-3.52-.81a36,36,0,0,0-32.36,7.46s-15.83,10.34-1.28,31.4c0,0,3.74,8,27.5,15.57a15.86,15.86,0,0,1,8.05,5.65c1.92,2.62,3,5.84-.31,8.27,0,0-6.58,6.34-16,1.42a19.16,19.16,0,0,0-2.39-1C352,127.53,345.1,124.75,340.91,120.24Z"/><path class="cls-3" d="M423.92,78.12l-23.11,83.74,19.66,5.62s11.49-25.79,12.38-32.17c0,0,10.09-.13,15.58,6.38l-10.6,32.17,19.92,10.47,31.91-73.66s-10.46-13-23-10.85L457,121.65s-14.55-7-17.49-6.9l8.05-28.85S433.37,74.8,423.92,78.12Z"/><path class="cls-3" d="M505,125.1,470.9,191.61s9.06,11.13,16,12.14L525,141.56S513.66,125.1,505,125.1Z"/><path class="cls-3" d="M514.43,177.18l-4.09,17.23s11.49,9.07,11.88,14.17c0,0,5.49-10,5.23-20.42C527.45,188.16,518,176.54,514.43,177.18Z"/><path class="cls-3" d="M574.05,214.07s-3.45-21.32-19.66-34.46l-44.05,53.23s5.49,22,26.81,28.09c0,0,15.45,4.46,28.85-13.54A34.55,34.55,0,0,0,574.05,214.07Zm-27.83,26.56c-9.07,7.15-19.28-2.94-19.28-2.94l27.7-30.64c6.64,3.07,5.36,10.6,5.36,10.6C562.17,233.73,546.22,240.63,546.22,240.63Z"/><path class="cls-3" d="M592.17,261.42S576,245.1,553.24,275.22c0,0-15.83,24.64.64,35.36,0,0,15.7,15.83,36.12-8C590,302.54,610.3,275.19,592.17,261.42Zm-13.46,30.3c-6.48,4.68-13.74,5.7-16.22,2.27s.77-10,7.25-14.69S583.49,273.61,586,277,585.19,287,578.71,291.72Z"/><path class="cls-3" d="M197.28,701.58l-6-6.74a38.26,38.26,0,0,1-18.18,4.6H133.24v-14.3h51.4a6.64,6.64,0,0,0,6.64-6.64V627.1a6.64,6.64,0,0,0-6.64-6.64H59.71a6.64,6.64,0,0,0-6.64,6.64v51.4a6.64,6.64,0,0,0,6.64,6.64h56v14h-47A13,13,0,0,1,58.12,694a1.74,1.74,0,0,0-2.76,0l-4.87,6.53a2.54,2.54,0,0,0,.08,3.16c2.94,3.52,10.89,11.68,21.56,11.68h43.58v11.23H49.32v15H68.73L55.45,762.41H68.73l13.79-20.34,13.7-.34-13.7,20.68H96.39l13.44-20.34H134l9.36,22H156L144.9,742h12.42l11.92,22h10.21l-11-21.79,19.49.09v-15.4H131.71V715.27h49.72a15.1,15.1,0,0,0,5.16-.89c3.59-1.31,9.32-4.32,11.18-10.57A2.38,2.38,0,0,0,197.28,701.58ZM129,636.46H179V648H129Zm0,24.85H179v11.57H129ZM68.73,636.46h50V648h-50Zm0,36.42V661.31h50v11.57Z"/><polygon class="cls-3" points="335.76 724.58 335.76 741.56 385.51 741.56 385.51 756.63 272.66 756.63 272.66 741.56 323.21 741.56 323.21 724.58 251.21 724.58 251.21 707.61 323.21 707.61 323.21 680.03 335.76 680.03 335.76 707.61 406.19 707.61 406.19 724.58 335.76 724.58"/><path class="cls-3" d="M602.52,658.84V641.22h-22l19.15-22-11-9.71-29.87,29.88-31.92-28.6-12.51,12,18.64,18.38H512.13v17.62H543l-12.26,12.51H514.3a2.17,2.17,0,0,0-2.17,2.17v70.21a2.17,2.17,0,0,0,2.17,2.17h76.09a2.17,2.17,0,0,0,2.17-2.17V703.28l6.55,9.46a.25.25,0,0,0,.45-.1l2.74-14.87a2.86,2.86,0,0,0-.43-2.11l-9.31-13.84v-8.3a2.17,2.17,0,0,0-2.17-2.17h-38l12.38-12.51ZM578,730.07H524.9v-6.89H578Zm0-20.17H524.9V703H578Zm0-27.06v6.89H524.9v-6.89Z"/><path class="cls-3" d="M466.68,672.63h37v68.2a13.93,13.93,0,0,0,1.64,6.73c2.14,3.88,7.06,8.27,18.3,6.94,1.28-.15,2.56-.23,3.85-.28l63.78-2.7V764.8l-84.46,5.05a22.2,22.2,0,0,1-14.29-4c-5.23-3.75-10.68-10.5-10.27-22.24l-28.34,26.55s-3.83-14.81,2-22l22-21.57.76-34.6H466.17Z"/></svg>