<svg id="Layer_1" data-name="Layer 1" xmlns="http://www.w3.org/2000/svg" viewBox="0 0 665.87 808.99"><defs><style>.cls-1{fill:#d02b21;}.cls-2{fill:#f4eaea;stroke:#020202;}.cls-2,.cls-5,.cls-6{stroke-miterlimit:10;}.cls-3,.cls-5,.cls-6{fill:#fff;}.cls-4{fill:#de241e;}.cls-5{stroke:#000;stroke-width:6px;}.cls-6{stroke:#070606;}</style></defs><path class="cls-1" d="M340.82,158.22s-109.12-8.68-180.27,76.43-49.7,182.13-49.7,182.13,16.68,78.29,29.62,100.76-68.43-80-78-144.34c0,0-44.94-167.49,98.38-274,0,0,137.19-127.32,324.77-10.9,0,0,107.23,46.3,122.55,200.86,0,0,12.09,114.21-64.51,216.85,0,0,69.7-203-88.85-315.58C454.85,190.39,386.66,155.38,340.82,158.22Z"/><path class="cls-2" d="M138.19,272.67l397,13.49-108.9,203v24.76s50.3,23.24,85.54,9.19c0,0-5.37,48.26-68.94,83.24,0,0-41.87,18.64-82.47,3.57l-30.64,52.85-32.42-64.59s-9.53-.09-13.7-2.56c0,0-22.69,17.37-41.58,15.45,0,0-19.79,2-22.21-23.49,0,0-17,4.72-29.24-9.57,0,0-11.74-10.47-3.57-42.64,0,0,4.85-14.81,4.85-18.13s10,20.68,10,20.68S188,567.5,208,571.07c0,0,18.12,4.6,21.19,1,0,0,4.85,24.77,16.08,22,0,0,15.32-1.27,22.47-9.44,0,0,26.3,3.57,39.58-1.79,0,0,8.42-.77,22.72,2,0,0,15.57-5.36,20.17-11.23L335.62,568l-4.34-2.55s-25.54,24-68.43,12.25c0,0-60.77-13.79-68.68-79.15,0,0-7.15-22.21,10.47-85.27Z"/><path d="M204.38,515.92s-24.08,42.37-13.19,52.21,31.06,10.6,31.06,10.6,7.81,49.28,46.67,8.94c0,0,88.72,12.51,89.83-16.21S204.38,515.92,204.38,515.92Z"/><path d="M315.7,337.46s-36.94.58-64.14,31.69a92.5,92.5,0,0,0-13.92,21.51c-5.37,11.36-16.35,35.62-19.24,50-.15.72-.3,1.43-.5,2.14-2.47,9-20.35,80.58,25.78,106,.85.47,1.71.94,2.55,1.43,8.12,4.79,64.22,34.84,99.19-26,1-1.81,2.12-3.62,3.27-5.37,4.11-6.26,16.69-29.29,22.41-83.34l3.83-55.41s-8.23-16.7-34.11-33.88c0,0,26.94,55.44,26.32,68.37a21.18,21.18,0,0,0,0,2.39,171.05,171.05,0,0,1-5.45,50.73s-10.21-77.39-33.45-108.29L318.1,546.18a3.55,3.55,0,0,1-1.77,2.9c-3.06,1.76-9.61,5.37-13.77,6.41a1.07,1.07,0,0,1-1.34-1.1l9.63-194.21S267.22,401.27,267.19,445q0,.39,0,.78c-.22,2.42-1.28,16.91,3.9,26.28a8.5,8.5,0,0,1,1.12,4.51l-.05,1.17a7.47,7.47,0,0,1-1,3.42c-3.95,6.72-19.08,34.74-17.53,67a.73.73,0,0,1-1,.7l-8.7-4.16a3.08,3.08,0,0,1-1.74-2.38c-.5-3.82-1-14.18,3.88-32.26,0,0,.23-17.71-7.24-33.83a4.76,4.76,0,0,1,0-4c3.38-7.49,14.93-33.56,17.5-45.8a58.84,58.84,0,0,1,2.2-7.95c4.18-11.56,15.35-40.2,27.88-53.46.81-.86,1.55-1.76,2.28-2.69C292.27,357.71,303.39,344.34,315.7,337.46Z"/><path d="M394.34,410.48s12.51,15.83,12.25,59.74c0,0,1.62,39.83-3.06,45.28l-24.43,5.2,1.09-45,7.54-45.91,3.7-23.45S393.57,409.36,394.34,410.48Z"/><circle class="cls-3" cx="275.46" cy="362.12" r="6.54"/><circle class="cls-3" cx="258.97" cy="380.35" r="7.4"/><circle class="cls-3" cx="244.16" cy="410.48" r="8.68"/><circle class="cls-3" cx="235.48" cy="441.24" r="10.09"/><circle class="cls-3" cx="336.67" cy="409.07" r="6.26"/><circle class="cls-3" cx="363.6" cy="375.5" r="4.85"/><circle class="cls-3" cx="340.05" cy="442.32" r="7.34"/><circle class="cls-3" cx="339.48" cy="475.71" r="9.06"/><polygon class="cls-3" points="277.4 509.29 265.4 532.01 277.4 554.73 290.68 534.05 277.4 509.29"/><polygon class="cls-3" points="231.96 488.86 225.39 502.14 234 520.7 240.89 504.78 231.96 488.86"/><polygon points="366.76 545.03 353.74 554.73 365.74 559.07 380.55 553.2 366.76 545.03"/><polygon points="394.08 534.82 382.08 538.39 394.08 546.05 406.59 538.9 394.08 534.82"/><polygon points="422.68 546.05 414.25 549.88 429.32 554.73 440.04 547.84 422.68 546.05"/><polygon points="397.66 561.86 386.42 567.24 396.38 574.39 411.7 568.13 397.66 561.86"/><polygon points="369.06 574.39 353.74 579.5 366 587.67 382.08 581.03 369.06 574.39"/><polygon points="414.25 584.35 403.53 589.97 414.25 599.41 429.32 590.48 414.25 584.35"/><polygon points="448.72 564.18 436.98 572.61 452.81 578.73 463.02 568.13 448.72 564.18"/><polygon points="470.68 543.24 461.49 552.05 474.51 557.8 484.47 548.35 470.68 543.24"/><polygon class="cls-4" points="201.06 359.67 213.57 386.22 222.25 366.05 201.06 359.67"/><path class="cls-4" d="M173,298.9l15.32,39.83s24,10,33.95,6.9,1.79-8.17,1.79-8.17S184,304.78,173,298.9Z"/><polygon class="cls-4" points="260.04 322.56 277.15 334.65 293.23 328.6 268.98 292.52 260.04 322.56"/><path class="cls-4" d="M318.51,298.9l2.55,21.45,22.22,11s11.23-28.6,11-31.15S320.55,297.12,318.51,298.9Z"/><polygon class="cls-4" points="355.53 337.46 365.74 346.21 442.34 302.48 396.13 302.48 355.53 337.46"/><polygon class="cls-4" points="488.55 324.35 472.72 357.12 398.94 371.41 386.68 373.97 395.87 359.67 488.55 324.35"/><path class="cls-4" d="M401.23,390.82s19.66,38,20.94,60.51l35.23-66.9Z"/><path class="cls-4" d="M332.37,629.8l10-23.08a1.1,1.1,0,0,0-.49-1.41c-3.72-2-18.25-9.52-24.28-7.32a.45.45,0,0,0-.28.53c.4,1.74,2.19,9,5.38,14.16.42.68.86,1.36,1.25,2.07Z"/><path class="cls-5" d="M257.46,195.71c-2.55,3.18-14.83,19.65-14.53,41.32l-18.72,85.53s-17.51,94.11-22.56,103.56a18.31,18.31,0,0,0-1.47,3.85c-3.8,14.08-17.42,72.67,8,108.38,0,0,38.54,58.77,104.71,37.15a49.6,49.6,0,0,0,15.21-8.08c13.59-10.63,41.21-38.26,52.49-93.45,0,0,21-126.81,20.68-139.32s24.17-80.26,33.7-89.79L446,233.76a13.6,13.6,0,0,0,3.69-6.5c.76-3.36.27-7.4-6.2-7.93,0,0-28.77-2.47-35.91,15.83,0,0-5.79,20.79-24.25,21.1a18.3,18.3,0,0,0-7.72,1.67C369.76,260.78,361.34,268,364,285.8a11,11,0,0,0,5,8.57,18.59,18.59,0,0,1,6,6.47c1.87,3.53,3.79,8.31,3.09,12.19-1.22,6.73-.56,64.91-4.23,88.9a71.05,71.05,0,0,0-.71,7.56C372.11,432,365,536.38,314.05,556c-.83.32-1.65.63-2.47,1-6.08,2.68-41.82,16.14-79.36-17.89a52.78,52.78,0,0,1-14.12-20.82c-5.81-15.74-11.06-45.07,3.23-88.26l29.53-99a51.54,51.54,0,0,1,6.81-14.35c5.77-8.47,16.11-21.48,27.82-26.12a10.78,10.78,0,0,0,2.8-1.59c4.21-3.41,12.95-14.53-7-39.5-.39-.5-.8-1-1.23-1.46-1.23-1.34-5.92-7.59-7.29-25.7a43,43,0,0,0-2.18-10.75c-2.28-6.64-6.46-16.07-11.87-16.39A1.59,1.59,0,0,0,257.46,195.71Z"/><path class="cls-3" d="M74,266.05l43.66,21s4.68-.93,8.08-15.23a86.85,86.85,0,0,0-16.42-12.09s-2.56-5.87,6.38-3.66l16.17.86s5.66.93,6.32-6.3c0,0,6.79-7.07,6.45-8.68,0,0,1.27-2.81-12.09-4.26l-31.49-6.13-9.27-30.72S79,217.2,80.64,225.8L84,244.35l-10-3.74-3.83,16.85S68.38,264.61,74,266.05Z"/><path class="cls-3" d="M110,169.46s-11.58,6.46-11,19.23l38.55,33.7s17.28,11.75,32.51-5.7c0,0,8.51-9.19,9.37-12.17,0,0,11.48-16-1.45-28.94l-36.43-44s-5-2-13.95,12.68c0,0,18.72,25.54,23.14,29.54,0,0,10,10.38,11.32,15.32,0,0,3.07,7.57-2.72,11.74,0,0-7.49,9-16.6-2.55,0,0-20.93-21.88-25.7-23.66Z"/><path class="cls-3" d="M254.3,152l-20.81-17.75s10.72-26.93-5-40.59c0,0-15.45-15.45-37.66-4,0,0-27.19,12.89-33.06,25.4,0,0,11.61,20.17,21.7,37.15,0,0,19.53,31.53,21.32,32.56,0,0,9.06-2.94,19.91-11.75L209.1,151.84s1.54-3.45,5.49-.89c0,0,5,.38,22.73,17.23l20.55-9.7S260.55,158.48,254.3,152Zm-55.54-18.9-10.85-19.15c17.37-16.21,25.54,0,25.54,0C219.32,125.29,198.76,133.07,198.76,133.07Z"/><path class="cls-3" d="M324.89,95.41c1.92-26.29-14.55-36.12-14.55-36.12-32.43-18.9-56.55,6.38-56.55,6.38-7.66,9.32-7.66,23.74-7.66,23.74-3.58,29.62,17,49.79,17,49.79,26,24.51,50.69-1.15,50.69-1.15C329.62,119.41,324.89,95.41,324.89,95.41ZM290.55,135.1c-15.7,1-19.91-31.39-19.91-31.39-7.92-31.53,10.46-36.25,10.46-36.25,18-1.92,18.39,30.76,18.39,30.76S306.25,134.09,290.55,135.1Z"/><path class="cls-3" d="M340.82,111.63,326.17,131.8s50,33.07,69.32,3.32c0,0,17.61-24.9-13.66-43.66,0,0-12.4-5.67-18.43-10.84a6.58,6.58,0,0,1-2.06-7.2c1.06-2.88,4.43-5.55,14.11-3.23a16.32,16.32,0,0,1,3.19,1.12c4.32,2,17.21,8.26,18.38,10.06,0,0,7.15-6.93,8.81-14,0,0-4.85-10.36-30.63-15.37-1.18-.23-2.35-.51-3.52-.82a36,36,0,0,0-32.36,7.46S323.49,69,338,90.05c0,0,3.74,8.06,27.5,15.57a15.82,15.82,0,0,1,8,5.66c1.92,2.61,3,5.84-.31,8.26,0,0-6.58,6.34-16,1.42a19.16,19.16,0,0,0-2.39-1C351.89,118.91,345,116.13,340.82,111.63Z"/><path class="cls-3" d="M423.83,69.5l-23.11,83.74,19.66,5.62s11.49-25.79,12.38-32.17c0,0,10.09-.13,15.58,6.38l-10.6,32.17,19.92,10.47,31.91-73.66s-10.47-13-23-10.85L456.89,113s-14.55-7-17.49-6.89l8.05-28.85S433.28,66.18,423.83,69.5Z"/><path class="cls-3" d="M504.89,116.48,470.81,183s9.06,11.14,15.95,12.14L524.93,133S513.57,116.48,504.89,116.48Z"/><path class="cls-3" d="M514.34,168.56l-4.09,17.24s11.49,9.06,11.88,14.17c0,0,5.49-10,5.23-20.43C527.36,179.54,517.91,167.92,514.34,168.56Z"/><path class="cls-3" d="M574,205.46S570.51,184.14,554.3,171l-44,53.23s5.49,22,26.81,28.09c0,0,15.45,4.47,28.85-13.53A34.56,34.56,0,0,0,574,205.46ZM546.13,232c-9.07,7.15-19.28-2.94-19.28-2.94l27.7-30.64c6.64,3.07,5.36,10.6,5.36,10.6C562.08,225.12,546.13,232,546.13,232Z"/><path class="cls-3" d="M592.08,252.8s-16.21-16.32-38.93,13.81c0,0-15.83,24.63.64,35.36,0,0,15.7,15.83,36.12-8.05C589.91,293.92,610.21,266.57,592.08,252.8Zm-13.46,30.31c-6.48,4.68-13.74,5.69-16.22,2.26s.77-10,7.25-14.68,13.74-5.7,16.22-2.27S585.1,278.43,578.62,283.11Z"/><path class="cls-6" d="M197.19,693l-6-6.74a38.26,38.26,0,0,1-18.18,4.6H133.15v-14.3h51.4a6.64,6.64,0,0,0,6.64-6.64v-51.4a6.64,6.64,0,0,0-6.64-6.64H59.62A6.64,6.64,0,0,0,53,618.48v51.4a6.64,6.64,0,0,0,6.64,6.64h56v14h-47A13,13,0,0,1,58,685.42a1.74,1.74,0,0,0-2.76,0L50.4,692a2.54,2.54,0,0,0,.08,3.16c2.94,3.52,10.89,11.68,21.56,11.68h43.58v11.23H49.23v15H68.64L55.36,753.79H68.64l13.79-20.34,13.7-.34-13.7,20.68H96.3l13.44-20.34h24.18l9.36,22h12.59l-11.06-22h12.42l11.92,22h10.21l-11-21.79,19.49.09v-15.4H131.62V706.65h49.72a15.1,15.1,0,0,0,5.16-.89c3.59-1.31,9.32-4.32,11.18-10.57A2.38,2.38,0,0,0,197.19,693Zm-68.3-65.12h50.05v11.57H128.89Zm0,24.85h50.05v11.57H128.89ZM68.64,627.84h50v11.57h-50Zm0,36.42V652.69h50v11.57Z"/><polygon class="cls-6" points="335.67 715.96 335.67 732.94 385.42 732.94 385.42 748.01 272.57 748.01 272.57 732.94 323.12 732.94 323.12 715.96 251.12 715.96 251.12 698.99 323.12 698.99 323.12 671.41 335.67 671.41 335.67 698.99 406.1 698.99 406.1 715.96 335.67 715.96"/><path class="cls-6" d="M602.43,650.22V632.6h-22l19.15-22-11-9.71-29.87,29.88-31.92-28.6-12.51,12L533,632.6H512v17.62h30.9l-12.26,12.51H514.21A2.17,2.17,0,0,0,512,664.9v70.21a2.17,2.17,0,0,0,2.17,2.17H590.3a2.17,2.17,0,0,0,2.17-2.17V694.66l6.55,9.46a.25.25,0,0,0,.45-.1l2.74-14.87a2.86,2.86,0,0,0-.43-2.11l-9.31-13.84v-8.3a2.17,2.17,0,0,0-2.17-2.17h-38l12.38-12.51Zm-24.51,71.23H524.81v-6.89h53.11Zm0-20.17H524.81v-6.89h53.11Zm0-27.06v6.89H524.81v-6.89Z"/><path class="cls-6" d="M466.59,664h37v68.2a13.93,13.93,0,0,0,1.64,6.73c2.14,3.88,7.06,8.27,18.3,6.94,1.28-.15,2.56-.22,3.85-.28l63.78-2.7v13.28l-84.46,5.05a22.14,22.14,0,0,1-14.29-4c-5.23-3.75-10.68-10.5-10.27-22.24l-28.34,26.55s-3.83-14.81,2-22l22-21.57.76-34.6H466.08Z"/></svg>